<svg width="32" height="32" viewBox="0 0 32 32" fill="none" xmlns="http://www.w3.org/2000/svg">
<rect width="32" height="32" rx="16" fill="white"/>
<path d="M16 9C18.796 9 20.1942 8.99987 21.2012 9.66602C21.6509 9.96356 22.0364 10.3491 22.334 10.7988C23.0001 11.8058 23 13.204 23 16C23 18.796 23.0001 20.1942 22.334 21.2012C22.0364 21.6509 21.6509 22.0364 21.2012 22.334C20.1942 23.0001 18.796 23 16 23C13.204 23 11.8058 23.0001 10.7988 22.334C10.3491 22.0364 9.96356 21.6509 9.66602 21.2012C8.99987 20.1942 9 18.796 9 16C9 13.204 8.99987 11.8058 9.66602 10.7988C9.96356 10.3491 10.3491 9.96356 10.7988 9.66602C11.8058 8.99987 13.204 9 16 9ZM15.999 12.375C13.9976 12.375 12.375 13.9976 12.375 15.999C12.375 18.0005 13.9976 19.623 15.999 19.623C18.0005 19.623 19.623 18.0005 19.623 15.999C19.623 13.9976 18.0005 12.375 15.999 12.375ZM15.999 13.6016C17.3233 13.6016 18.3965 14.6747 18.3965 15.999C18.3965 17.3233 17.3233 18.3965 15.999 18.3965C14.6747 18.3965 13.6016 17.3233 13.6016 15.999C13.6016 14.6747 14.6747 13.6016 15.999 13.6016ZM19.7676 11.3418C19.2973 11.3418 18.916 11.7231 18.916 12.1934C18.916 12.6636 19.2973 13.0449 19.7676 13.0449C20.2378 13.0449 20.6191 12.6636 20.6191 12.1934C20.6191 11.7231 20.2378 11.3418 19.7676 11.3418Z" fill="black"/>
</svg>
