<svg width="32" height="32" viewBox="0 0 32 32" fill="none" xmlns="http://www.w3.org/2000/svg">
<rect width="32" height="32" rx="16" fill="white"/>
<path d="M10 11.3939C10 10.9899 10.1351 10.6566 10.4054 10.3939C10.6757 10.1313 11.027 10 11.4595 10C11.8842 10 12.2278 10.1293 12.4903 10.3879C12.7606 10.6545 12.8958 11.002 12.8958 11.4303C12.8958 11.8182 12.7645 12.1414 12.5019 12.4C12.2317 12.6667 11.8764 12.8 11.4363 12.8H11.4247C11 12.8 10.6564 12.6667 10.3938 12.4C10.1313 12.1333 10 11.798 10 11.3939ZM10.1506 22V13.903H12.722V22H10.1506ZM14.1467 22H16.7181V17.4788C16.7181 17.196 16.749 16.9778 16.8108 16.8242C16.9189 16.5495 17.083 16.3172 17.3031 16.1273C17.5232 15.9374 17.7992 15.8424 18.1313 15.8424C18.9961 15.8424 19.4286 16.4525 19.4286 17.6727V22H22V17.3576C22 16.1616 21.7297 15.2545 21.1892 14.6364C20.6486 14.0182 19.9344 13.7091 19.0463 13.7091C18.0502 13.7091 17.2741 14.1576 16.7181 15.0545V15.0788H16.7066L16.7181 15.0545V13.903H14.1467C14.1622 14.1616 14.1699 14.9656 14.1699 16.3152C14.1699 17.6646 14.1622 19.5596 14.1467 22Z" fill="#4065F6"/>
</svg>
