<svg width="57" height="32" viewBox="0 0 57 32" fill="none" xmlns="http://www.w3.org/2000/svg">
<g clip-path="url(#clip0_93_4826)">
<path d="M9.74269 17.8788C12.3299 17.8788 14.4172 19.9809 14.4172 22.5534V27.1103C14.4172 28.9919 12.8884 30.5354 10.9922 30.5354V28.8155C11.9477 28.8155 12.712 28.0511 12.712 27.1103V26.0078H12.6091C12.6091 26.0078 11.5655 27.2279 9.74269 27.2279C7.17022 27.2279 5.08285 25.1258 5.08285 22.5534C5.08285 19.9809 7.17022 17.8788 9.74269 17.8788ZM9.74269 25.508C11.3744 25.508 12.712 24.185 12.712 22.5534C12.712 20.9217 11.3744 19.5987 9.74269 19.5987C8.11101 19.5987 6.78803 20.9217 6.78803 22.5534C6.78803 24.185 8.11101 25.508 9.74269 25.508ZM17.8977 23.7881C17.8977 24.7289 18.6621 25.508 19.6029 25.508V27.2132C17.7213 27.2132 16.1926 25.6844 16.1926 23.7881V14.7331H17.8977V23.7881ZM25.1172 17.8788C27.7043 17.8788 29.7917 19.9809 29.7917 22.5534C29.7917 25.1258 27.7043 27.2279 25.1172 27.2279C22.5447 27.2279 20.4573 25.1258 20.4573 22.5534C20.4573 19.9809 22.5447 17.8788 25.1172 17.8788ZM25.1172 25.508C26.7489 25.508 28.0865 24.185 28.0865 22.5534C28.0865 20.9217 26.7489 19.5987 25.1172 19.5987C23.4855 19.5987 22.1625 20.9217 22.1625 22.5534C22.1625 24.185 23.4855 25.508 25.1172 25.508ZM35.9958 17.8788C38.5683 17.8788 40.6557 19.9809 40.6557 22.5534C40.6557 25.1258 38.5683 27.2279 35.9811 27.2279C33.4087 27.2279 31.3213 25.1258 31.3213 22.5534V14.5714H33.0265V19.0989H33.1294C33.1294 19.0989 34.1731 17.8788 35.9958 17.8788ZM35.9811 25.508C37.6128 25.508 38.9505 24.185 38.9505 22.5534C38.9505 20.9217 37.6128 19.5987 35.9811 19.5987C34.3495 19.5987 33.0265 20.9217 33.0265 22.5534C33.0265 24.185 34.3495 25.508 35.9811 25.508ZM46.3343 17.8788C48.9214 17.8788 51.0088 19.9809 51.0088 22.5534V27.0515H49.3036V26.0078H49.2007C49.2007 26.0078 48.1571 27.2132 46.3637 27.2279C46.349 27.2279 46.349 27.2279 46.3343 27.2279C43.7618 27.2279 41.6744 25.1258 41.6744 22.5534C41.6744 19.9809 43.7618 17.8788 46.3343 17.8788ZM46.3343 25.508C47.966 25.508 49.3036 24.185 49.3036 22.5534C49.3036 20.9217 47.966 19.5987 46.3343 19.5987C44.7026 19.5987 43.3796 20.9217 43.3796 22.5534C43.3796 24.185 44.7026 25.508 46.3343 25.508ZM54.4893 23.7881C54.4893 24.7289 55.2537 25.508 56.1945 25.508V27.2132C54.3129 27.2132 52.7842 25.6844 52.7842 23.7881V14.7331H54.4893V23.7881Z" fill="white"/>
<path d="M6.39441 8.64927C8.17309 8.79627 9.20207 9.73706 9.20207 11.1629C9.20207 12.0449 8.79048 14.1029 5.01263 14.1029H4.77743C0.999586 14.1029 0.602692 12.0449 0.602692 11.1629H2.30787C2.30787 11.4716 2.30787 12.383 4.77743 12.383H5.01263C7.4822 12.383 7.4822 11.4716 7.4822 11.1629C7.4822 10.9277 7.4822 10.4573 6.29151 10.3544L3.51325 10.281C2.10207 10.2222 0.70559 9.39896 0.70559 7.69379C0.70559 6.8118 1.10248 4.75383 4.89503 4.75383C8.67288 4.75383 9.08448 6.8118 9.08448 7.69379H7.3646C7.3646 7.38509 7.3646 6.4737 4.89503 6.4737C2.41077 6.4737 2.41077 7.38509 2.41077 7.69379C2.41077 8.44348 3.21926 8.56107 3.57205 8.57577L6.39441 8.64927ZM14.9933 4.75383C17.5805 4.75383 19.6679 6.8559 19.6679 9.42836C19.6679 12.0008 17.5805 14.1029 14.9933 14.1029C12.4209 14.1029 10.3335 12.0008 10.3335 9.42836C10.3335 6.8559 12.4209 4.75383 14.9933 4.75383ZM14.9933 12.383C16.625 12.383 17.9627 11.06 17.9627 9.42836C17.9627 7.79668 16.625 6.4737 14.9933 6.4737C13.3617 6.4737 12.0387 7.79668 12.0387 9.42836C12.0387 11.06 13.3617 12.383 14.9933 12.383ZM27.8712 9.66356C29.1059 10.3544 29.9585 11.6921 29.9585 13.2209V14H28.2387V13.2209C28.2387 11.9273 27.195 10.8689 25.9014 10.8689H23.079V14H21.3739V1.51987H23.079V9.14907H24.99C26.2836 9.14907 27.3273 8.10538 27.3273 6.8118V5.00372H29.0471V6.8118C29.0471 7.92898 28.5915 8.92857 27.8712 9.66356ZM36.2977 4.82733C38.8849 4.82733 40.9722 6.9294 40.9722 9.50186V14H39.2671V9.50186C39.2671 7.87018 37.9294 6.5472 36.2977 6.5472C34.666 6.5472 33.343 7.87018 33.343 9.50186V14H31.6379V1.51987H33.343V6.04741H33.4459C33.4459 6.04741 34.4749 4.84203 36.2683 4.82733C36.283 4.82733 36.2977 4.82733 36.2977 4.82733ZM46.8046 4.75383C49.3918 4.75383 51.4792 6.8559 51.4792 9.42836C51.4792 12.0008 49.3918 14.1029 46.8046 14.1029C44.2322 14.1029 42.1448 12.0008 42.1448 9.42836C42.1448 6.8559 44.2322 4.75383 46.8046 4.75383ZM46.8046 12.383C48.4363 12.383 49.774 11.06 49.774 9.42836C49.774 7.79668 48.4363 6.4737 46.8046 6.4737C45.1729 6.4737 43.85 7.79668 43.85 9.42836C43.85 11.06 45.1729 12.383 46.8046 12.383ZM52.7735 8.19358C52.7735 6.2973 54.3023 4.76853 56.1839 4.76853V6.4737C55.2431 6.4737 54.4787 7.25279 54.4787 8.19358V14H52.7735V8.19358Z" fill="white"/>
<circle cx="25.2003" cy="23.0998" r="3.67495" fill="white"/>
</g>
<defs>
<clipPath id="clip0_93_4826">
<rect width="56.6992" height="31.4996" fill="white"/>
</clipPath>
</defs>
</svg>
