<svg width="70" height="39" viewBox="0 0 70 39" fill="none" xmlns="http://www.w3.org/2000/svg">
<g clip-path="url(#clip0_93_5657)">
<path d="M12.0185 21.7852C15.2103 21.7852 17.7855 24.3785 17.7855 27.5522V33.1742C17.7855 35.4956 15.8995 37.3998 13.56 37.3998V35.278C14.7388 35.278 15.6818 34.3349 15.6818 33.1742V31.8141H15.5549C15.5549 31.8141 14.2673 33.3193 12.0185 33.3193C8.84475 33.3193 6.26951 30.726 6.26951 27.5522C6.26951 24.3785 8.84475 21.7852 12.0185 21.7852ZM12.0185 31.1975C14.0315 31.1975 15.6818 29.5653 15.6818 27.5522C15.6818 25.5392 14.0315 23.907 12.0185 23.907C10.0054 23.907 8.37322 25.5392 8.37322 27.5522C8.37322 29.5653 10.0054 31.1975 12.0185 31.1975ZM22.0795 29.0756C22.0795 30.2363 23.0226 31.1975 24.1833 31.1975V33.3012C21.8619 33.3012 19.9758 31.4151 19.9758 29.0756V17.9042H22.0795V29.0756ZM30.9863 21.7852C34.1782 21.7852 36.7534 24.3785 36.7534 27.5522C36.7534 30.726 34.1782 33.3193 30.9863 33.3193C27.8126 33.3193 25.2374 30.726 25.2374 27.5522C25.2374 24.3785 27.8126 21.7852 30.9863 21.7852ZM30.9863 31.1975C32.9994 31.1975 34.6497 29.5653 34.6497 27.5522C34.6497 25.5392 32.9994 23.907 30.9863 23.907C28.9733 23.907 27.3411 25.5392 27.3411 27.5522C27.3411 29.5653 28.9733 31.1975 30.9863 31.1975ZM44.4076 21.7852C47.5813 21.7852 50.1565 24.3785 50.1565 27.5522C50.1565 30.726 47.5813 33.3193 44.3895 33.3193C41.2157 33.3193 38.6405 30.726 38.6405 27.5522V17.7047H40.7442V23.2904H40.8712C40.8712 23.2904 42.1588 21.7852 44.4076 21.7852ZM44.3895 31.1975C46.4025 31.1975 48.0528 29.5653 48.0528 27.5522C48.0528 25.5392 46.4025 23.907 44.3895 23.907C42.3764 23.907 40.7442 25.5392 40.7442 27.5522C40.7442 29.5653 42.3764 31.1975 44.3895 31.1975ZM57.1624 21.7852C60.3542 21.7852 62.9294 24.3785 62.9294 27.5522V33.1017H60.8257V31.8141H60.6988C60.6988 31.8141 59.4112 33.3012 57.1986 33.3193C57.1805 33.3193 57.1805 33.3193 57.1624 33.3193C53.9886 33.3193 51.4134 30.726 51.4134 27.5522C51.4134 24.3785 53.9886 21.7852 57.1624 21.7852ZM57.1624 31.1975C59.1754 31.1975 60.8257 29.5653 60.8257 27.5522C60.8257 25.5392 59.1754 23.907 57.1624 23.907C55.1493 23.907 53.5171 25.5392 53.5171 27.5522C53.5171 29.5653 55.1493 31.1975 57.1624 31.1975ZM67.2234 29.0756C67.2234 30.2363 68.1665 31.1975 69.3272 31.1975V33.3012C67.0058 33.3012 65.1197 31.4151 65.1197 29.0756V17.9042H67.2234V29.0756Z" fill="black"/>
<path d="M7.88894 10.3987C10.0833 10.58 11.3528 11.7407 11.3528 13.4999C11.3528 14.588 10.845 17.1269 6.1842 17.1269H5.89403C1.23321 17.1269 0.743555 14.588 0.743555 13.4999H2.84727C2.84727 13.8807 2.84727 15.0051 5.89403 15.0051H6.1842C9.23096 15.0051 9.23096 13.8807 9.23096 13.4999C9.23096 13.2097 9.23096 12.6293 7.76199 12.5024L4.33438 12.4117C2.59337 12.3392 0.870503 11.3236 0.870503 9.21988C0.870503 8.13175 1.36016 5.59278 6.03912 5.59278C10.6999 5.59278 11.2077 8.13175 11.2077 9.21988H9.08588C9.08588 8.83903 9.08588 7.71463 6.03912 7.71463C2.97422 7.71463 2.97422 8.83903 2.97422 9.21988C2.97422 10.1448 3.97167 10.2899 4.40692 10.308L7.88894 10.3987ZM18.4976 5.59278C21.6895 5.59278 24.2647 8.18615 24.2647 11.3599C24.2647 14.5336 21.6895 17.1269 18.4976 17.1269C15.3239 17.1269 12.7487 14.5336 12.7487 11.3599C12.7487 8.18615 15.3239 5.59278 18.4976 5.59278ZM18.4976 15.0051C20.5107 15.0051 22.161 13.3729 22.161 11.3599C22.161 9.34682 20.5107 7.71463 18.4976 7.71463C16.4846 7.71463 14.8524 9.34682 14.8524 11.3599C14.8524 13.3729 16.4846 15.0051 18.4976 15.0051ZM34.3853 11.65C35.9087 12.5024 36.9605 14.1527 36.9605 16.0388V17H34.8387V16.0388C34.8387 14.4429 33.5511 13.1371 31.9552 13.1371H28.4731V17H26.3694V1.60297H28.4731V11.0153H30.8308C32.4267 11.0153 33.7143 9.72767 33.7143 8.13175V5.90108H35.8361V8.13175C35.8361 9.51004 35.2739 10.7433 34.3853 11.65ZM44.7813 5.68346C47.9732 5.68346 50.5484 8.27683 50.5484 11.4505V17H48.4447V11.4505C48.4447 9.4375 46.7944 7.80531 44.7813 7.80531C42.7683 7.80531 41.1361 9.4375 41.1361 11.4505V17H39.0324V1.60297H41.1361V7.1887H41.2631C41.2631 7.1887 42.5325 5.70159 44.7451 5.68346C44.7632 5.68346 44.7813 5.68346 44.7813 5.68346ZM57.744 5.59278C60.9358 5.59278 63.511 8.18615 63.511 11.3599C63.511 14.5336 60.9358 17.1269 57.744 17.1269C54.5702 17.1269 51.995 14.5336 51.995 11.3599C51.995 8.18615 54.5702 5.59278 57.744 5.59278ZM57.744 15.0051C59.757 15.0051 61.4073 13.3729 61.4073 11.3599C61.4073 9.34682 59.757 7.71463 57.744 7.71463C55.7309 7.71463 54.0987 9.34682 54.0987 11.3599C54.0987 13.3729 55.7309 15.0051 57.744 15.0051ZM65.108 9.83648C65.108 7.497 66.994 5.61091 69.3154 5.61091V7.71463C68.1547 7.71463 67.2117 8.67581 67.2117 9.83648V17H65.108V9.83648Z" fill="black"/>
<circle cx="31.0886" cy="28.4987" r="4.53387" fill="black"/>
</g>
<defs>
<clipPath id="clip0_93_5657">
<rect width="69.9512" height="38.8618" fill="white"/>
</clipPath>
</defs>
</svg>
