<svg width="88" height="49" viewBox="0 0 88 49" fill="none" xmlns="http://www.w3.org/2000/svg">
<g clip-path="url(#clip0_134_780)">
<path d="M15.1207 28.0196C19.1361 28.0196 22.3758 31.2821 22.3758 35.2747V42.3473C22.3758 45.2676 20.003 47.6632 17.0599 47.6632V44.9938C18.5429 44.9938 19.7293 43.8075 19.7293 42.3473V40.6362H19.5695C19.5695 40.6362 17.9497 42.5298 15.1207 42.5298C11.1281 42.5298 7.88836 39.2673 7.88836 35.2747C7.88836 31.2821 11.1281 28.0196 15.1207 28.0196ZM15.1207 39.8605C17.6531 39.8605 19.7293 37.8072 19.7293 35.2747C19.7293 32.7423 17.6531 30.6889 15.1207 30.6889C12.5882 30.6889 10.5349 32.7423 10.5349 35.2747C10.5349 37.8072 12.5882 39.8605 15.1207 39.8605ZM27.7777 37.1912C27.7777 38.6513 28.9641 39.8605 30.4242 39.8605V42.507C27.5039 42.507 25.1312 40.1343 25.1312 37.1912V23.1372H27.7777V37.1912ZM38.9826 28.0196C42.998 28.0196 46.2377 31.2821 46.2377 35.2747C46.2377 39.2673 42.998 42.5298 38.9826 42.5298C34.99 42.5298 31.7503 39.2673 31.7503 35.2747C31.7503 31.2821 34.99 28.0196 38.9826 28.0196ZM38.9826 39.8605C41.5151 39.8605 43.5912 37.8072 43.5912 35.2747C43.5912 32.7423 41.5151 30.6889 38.9826 30.6889C36.4502 30.6889 34.3969 32.7423 34.3969 35.2747C34.3969 37.8072 36.4502 39.8605 38.9826 39.8605ZM55.8668 28.0196C59.8594 28.0196 63.0991 31.2821 63.0991 35.2747C63.0991 39.2673 59.8594 42.5298 55.844 42.5298C51.8514 42.5298 48.6117 39.2673 48.6117 35.2747V22.8863H51.2583V29.9132H51.418C51.418 29.9132 53.0378 28.0196 55.8668 28.0196ZM55.844 39.8605C58.3765 39.8605 60.4526 37.8072 60.4526 35.2747C60.4526 32.7423 58.3765 30.6889 55.844 30.6889C53.3116 30.6889 51.2583 32.7423 51.2583 35.2747C51.2583 37.8072 53.3116 39.8605 55.844 39.8605ZM71.9126 28.0196C75.928 28.0196 79.1677 31.2821 79.1677 35.2747V42.256H76.5212V40.6362H76.3615C76.3615 40.6362 74.7417 42.507 71.9582 42.5298C71.9354 42.5298 71.9354 42.5298 71.9126 42.5298C67.92 42.5298 64.6803 39.2673 64.6803 35.2747C64.6803 31.2821 67.92 28.0196 71.9126 28.0196ZM71.9126 39.8605C74.4451 39.8605 76.5212 37.8072 76.5212 35.2747C76.5212 32.7423 74.4451 30.6889 71.9126 30.6889C69.3802 30.6889 67.3268 32.7423 67.3268 35.2747C67.3268 37.8072 69.3802 39.8605 71.9126 39.8605ZM84.5697 37.1912C84.5697 38.6513 85.756 39.8605 87.2162 39.8605V42.507C84.2959 42.507 81.9231 40.1343 81.9231 37.1912V23.1372H84.5697V37.1912Z" fill="white"/>
<path d="M9.92445 13.6954C12.685 13.9236 14.2821 15.3837 14.2821 17.5967C14.2821 18.9656 13.6433 22.1597 7.77985 22.1597H7.41482C1.55141 22.1597 0.935407 18.9656 0.935407 17.5967H3.58193C3.58193 18.0759 3.58193 19.4904 7.41482 19.4904H7.77985C11.6127 19.4904 11.6127 18.0759 11.6127 17.5967C11.6127 17.2317 11.6127 16.5016 9.76474 16.3419L5.45274 16.2279C3.26252 16.1366 1.09511 14.859 1.09511 12.2124C1.09511 10.8436 1.71111 7.64948 7.59733 7.64948C13.4607 7.64948 14.0996 10.8436 14.0996 12.2124H11.4302C11.4302 11.7333 11.4302 10.3188 7.59733 10.3188C3.74163 10.3188 3.74163 11.7333 3.74163 12.2124C3.74163 13.376 4.99644 13.5585 5.544 13.5813L9.92445 13.6954ZM23.2704 7.64948C27.2858 7.64948 30.5255 10.912 30.5255 14.9046C30.5255 18.8972 27.2858 22.1597 23.2704 22.1597C19.2778 22.1597 16.0381 18.8972 16.0381 14.9046C16.0381 10.912 19.2778 7.64948 23.2704 7.64948ZM23.2704 19.4904C25.8028 19.4904 27.879 17.437 27.879 14.9046C27.879 12.3721 25.8028 10.3188 23.2704 10.3188C20.738 10.3188 18.6846 12.3721 18.6846 14.9046C18.6846 17.437 20.738 19.4904 23.2704 19.4904ZM43.2574 15.2696C45.1739 16.3419 46.4971 18.4181 46.4971 20.7908V22H43.8278V20.7908C43.8278 18.7831 42.2079 17.1404 40.2002 17.1404H35.8198V22H33.1733V2.63022H35.8198V14.4711H38.7857C40.7934 14.4711 42.4133 12.8513 42.4133 10.8436V8.03733H45.0826V10.8436C45.0826 12.5775 44.3754 14.1289 43.2574 15.2696ZM56.3358 7.76355C60.3512 7.76355 63.591 11.0261 63.591 15.0187V22H60.9444V15.0187C60.9444 12.4862 58.8683 10.4329 56.3358 10.4329C53.8034 10.4329 51.7501 12.4862 51.7501 15.0187V22H49.1035V2.63022H51.7501V9.65718H51.9098C51.9098 9.65718 53.5068 7.78637 56.2902 7.76355C56.313 7.76355 56.3358 7.76355 56.3358 7.76355ZM72.6431 7.64948C76.6585 7.64948 79.8982 10.912 79.8982 14.9046C79.8982 18.8972 76.6585 22.1597 72.6431 22.1597C68.6505 22.1597 65.4108 18.8972 65.4108 14.9046C65.4108 10.912 68.6505 7.64948 72.6431 7.64948ZM72.6431 19.4904C75.1755 19.4904 77.2517 17.437 77.2517 14.9046C77.2517 12.3721 75.1755 10.3188 72.6431 10.3188C70.1106 10.3188 68.0573 12.3721 68.0573 14.9046C68.0573 17.437 70.1106 19.4904 72.6431 19.4904ZM81.9071 12.9881C81.9071 10.045 84.2799 7.6723 87.2002 7.6723V10.3188C85.74 10.3188 84.5537 11.528 84.5537 12.9881V22H81.9071V12.9881Z" fill="white"/>
<circle cx="39.11" cy="35.8521" r="5.7037" fill="white"/>
</g>
<defs>
<clipPath id="clip0_134_780">
<rect width="88" height="48.8889" fill="white"/>
</clipPath>
</defs>
</svg>
