<svg width="94" height="74" viewBox="0 0 94 74" fill="none" xmlns="http://www.w3.org/2000/svg">
<path d="M25.0829 35.2381C30.4404 36.2449 34.4991 38.5102 37.2591 42.034C40.1813 45.39 41.6425 49.4172 41.6425 54.1156C41.6425 60.3243 39.6943 65.1905 35.7979 68.7143C32.0639 72.2381 27.3558 74 21.6736 74C15.9914 74 10.9585 72.1542 6.57513 68.4626C2.19171 64.771 0 59.2336 0 51.8503C0 47.6553 1.05527 42.9569 3.1658 37.7551C5.43869 32.3855 9.01036 25.4218 13.8808 16.8639L23.6218 0H45.2953L25.0829 35.2381ZM73.7876 35.2381C79.1451 36.2449 83.2038 38.5102 85.9637 42.034C88.886 45.39 90.3472 49.4172 90.3472 54.1156C90.3472 60.3243 88.399 65.1905 84.5026 68.7143C80.7686 72.2381 76.0605 74 70.3782 74C64.696 74 59.6632 72.1542 55.2798 68.4626C50.8964 64.771 48.7047 59.2336 48.7047 51.8503C48.7047 47.6553 49.7599 42.9569 51.8705 37.7551C54.1433 32.3855 57.715 25.4218 62.5855 16.8639L72.3264 0H94L73.7876 35.2381Z" fill="#4065F6" fill-opacity="0.14"/>
</svg>
