<svg width="32" height="32" viewBox="0 0 32 32" fill="none" xmlns="http://www.w3.org/2000/svg">
<circle cx="16" cy="16" r="16" fill="white"/>
<path fill-rule="evenodd" clip-rule="evenodd" d="M31 16C31 24.2842 24.2842 31 16 31C7.71575 31 1 24.2842 1 16C1 7.71575 7.71575 1 16 1C24.2842 1 31 7.71575 31 16ZM11.0447 14.6259C9.54206 15.282 7.99819 15.9561 6.58641 16.7337C5.84923 17.2735 6.82899 17.6553 7.74819 18.0134C7.89431 18.0704 8.03888 18.1267 8.17481 18.1829C8.28794 18.2178 8.40294 18.2544 8.5195 18.2915C9.54181 18.6172 10.6817 18.9804 11.6742 18.4341C13.3046 17.4975 14.8431 16.4147 16.3806 15.3328C16.8843 14.9783 17.3878 14.6239 17.8944 14.2748C17.9182 14.2596 17.9449 14.2422 17.9743 14.2233C18.4058 13.9435 19.3765 13.3143 19.0174 14.1813C18.1684 15.1098 17.259 15.9317 16.3447 16.7581C15.7284 17.3151 15.1099 17.8741 14.5062 18.4691C13.9804 18.8963 13.4343 19.7555 14.0231 20.3538C15.3793 21.3032 16.7567 22.2296 18.1333 23.1554C18.5812 23.4567 19.0291 23.7579 19.4761 24.0599C20.2338 24.6648 21.4178 24.1755 21.5844 23.2303C21.6584 22.7955 21.7328 22.3607 21.8072 21.9259C22.2182 19.523 22.6293 17.1192 22.9925 14.7084C23.0419 14.3303 23.0978 13.9521 23.1538 13.5738C23.2895 12.6569 23.4254 11.7388 23.4678 10.8169C23.3584 9.89694 22.2429 10.0993 21.6222 10.3061C18.4314 11.5203 15.2726 12.8244 12.1262 14.1515C11.7697 14.3094 11.4084 14.4671 11.0447 14.6259Z" fill="#4065F6"/>
</svg>
