<svg width="24" height="24" viewBox="0 0 24 24" fill="none" xmlns="http://www.w3.org/2000/svg">
<path fill-rule="evenodd" clip-rule="evenodd" d="M7.67 2H16.34C19.73 2 22 4.38 22 7.92V16.091C22 19.62 19.73 22 16.34 22H7.67C4.28 22 2 19.62 2 16.091V7.92C2 4.38 4.28 2 7.67 2ZM11.4304 14.99L16.1804 10.24C16.5204 9.9 16.5204 9.35 16.1804 9C15.8404 8.66 15.2804 8.66 14.9404 9L10.8104 13.13L9.06043 11.38C8.72043 11.04 8.16043 11.04 7.82043 11.38C7.48043 11.72 7.48043 12.27 7.82043 12.62L10.2004 14.99C10.3704 15.16 10.5904 15.24 10.8104 15.24C11.0404 15.24 11.2604 15.16 11.4304 14.99Z" fill="#4065F6"/>
</svg>
