<svg width="16" height="16" viewBox="0 0 16 16" fill="none" xmlns="http://www.w3.org/2000/svg">
<path fill-rule="evenodd" clip-rule="evenodd" d="M5.11398 1.33301H10.894C13.154 1.33301 14.6673 2.91967 14.6673 5.27967V10.727C14.6673 13.0797 13.154 14.6663 10.894 14.6663H5.11398C2.85398 14.6663 1.33398 13.0797 1.33398 10.727V5.27967C1.33398 2.91967 2.85398 1.33301 5.11398 1.33301ZM7.62094 9.993L10.7876 6.82634C11.0143 6.59967 11.0143 6.233 10.7876 5.99967C10.5609 5.773 10.1876 5.773 9.96094 5.99967L7.2076 8.753L6.04094 7.58634C5.81427 7.35967 5.44094 7.35967 5.21427 7.58634C4.9876 7.813 4.9876 8.17967 5.21427 8.413L6.80094 9.993C6.91427 10.1063 7.06094 10.1597 7.2076 10.1597C7.36094 10.1597 7.5076 10.1063 7.62094 9.993Z" fill="#6C9FFF"/>
</svg>
