<svg width="32" height="32" viewBox="0 0 32 32" fill="none" xmlns="http://www.w3.org/2000/svg">
<path fill-rule="evenodd" clip-rule="evenodd" d="M16 32C7.16344 32 0 24.8366 0 16C0 7.16344 7.16344 0 16 0C24.8366 0 32 7.16344 32 16C32 24.8366 24.8366 32 16 32ZM16.5274 24.9017C21.773 24.8995 26.0393 20.6322 26.0414 15.3877C26.0424 12.8456 25.0537 10.4552 23.2575 8.65694C21.4612 6.85858 19.0724 5.86777 16.5273 5.86667C11.2832 5.86667 7.01519 10.1345 7.0131 15.3802C7.01239 17.057 7.45049 18.6937 8.28308 20.1366L6.93333 25.0667L11.9769 23.7436C13.3665 24.5016 14.9311 24.9011 16.5234 24.9017H16.5274Z" fill="white"/>
<path fill-rule="evenodd" clip-rule="evenodd" d="M12.2103 22.0203L9.21734 22.8054L10.0162 19.8873L9.82818 19.5881C9.0366 18.3291 8.61853 16.8739 8.61914 15.3797C8.62087 11.0198 12.1683 7.47266 16.5302 7.47266C18.6423 7.47339 20.6278 8.29696 22.1208 9.79169C23.6138 11.2864 24.4355 13.2732 24.4347 15.3862C24.433 19.7465 20.8856 23.2939 16.5271 23.2939H16.5239C15.1049 23.2934 13.7131 22.9121 12.499 22.1917L12.2103 22.0203ZM21.3202 17.6491C21.2608 17.55 21.1023 17.4905 20.8646 17.3714C20.6269 17.2524 19.4581 16.6774 19.2402 16.598C19.0223 16.5187 18.8638 16.4791 18.7053 16.717C18.5469 16.9549 18.0913 17.4905 17.9526 17.6491C17.8139 17.8077 17.6752 17.8276 17.4376 17.7086C17.1999 17.5896 16.4339 17.3386 15.5259 16.5287C14.8191 15.8983 14.342 15.1199 14.2034 14.8819C14.0647 14.6439 14.1886 14.5153 14.3076 14.3967C14.4145 14.2902 14.5453 14.119 14.6642 13.9802C14.783 13.8414 14.8227 13.7422 14.9019 13.5837C14.9811 13.4249 14.9415 13.2862 14.8821 13.1672C14.8227 13.0482 14.3472 11.878 14.1491 11.402C13.9562 10.9385 13.7602 11.0013 13.6143 10.994C13.4758 10.987 13.3171 10.9855 13.1587 10.9855C13.0002 10.9855 12.7426 11.045 12.5247 11.283C12.3068 11.521 11.6927 12.0962 11.6927 13.2662C11.6927 14.4363 12.5445 15.5668 12.6634 15.7254C12.7822 15.8841 14.3397 18.2852 16.7244 19.315C17.2916 19.5599 17.7344 19.7062 18.0797 19.8157C18.6491 19.9967 19.1674 19.9712 19.5769 19.9099C20.0337 19.8417 20.9834 19.3349 21.1816 18.7796C21.3796 18.2242 21.3796 17.7482 21.3202 17.6491Z" fill="white"/>
</svg>
