<svg width="32" height="32" viewBox="0 0 32 32" fill="none" xmlns="http://www.w3.org/2000/svg">
<circle cx="16" cy="16" r="16" fill="white"/>
<path fill-rule="evenodd" clip-rule="evenodd" d="M16 31C7.71573 31 1 24.2843 1 16C1 7.71573 7.71573 1 16 1C24.2843 1 31 7.71573 31 16C31 24.2843 24.2843 31 16 31ZM16.4944 24.3453C21.4122 24.3433 25.4119 20.3427 25.4138 15.4259C25.4148 13.0427 24.4879 10.8018 22.8039 9.11588C21.1199 7.42992 18.8804 6.50103 16.4943 6.5C11.578 6.5 7.57674 10.5011 7.57478 15.4189C7.57411 16.9909 7.98483 18.5253 8.76538 19.878L7.5 24.5L12.2283 23.2597C13.5311 23.9703 14.9979 24.3448 16.4907 24.3453H16.4944Z" fill="#4065F6"/>
<path fill-rule="evenodd" clip-rule="evenodd" d="M12.4468 21.6452L9.64089 22.3813L10.3898 19.6456L10.2136 19.3651C9.47145 18.1848 9.0795 16.8205 9.08008 15.4197C9.0817 11.3323 12.4074 8.00684 16.4967 8.00684C18.4768 8.00752 20.3382 8.77962 21.7379 10.1809C23.1376 11.5822 23.9079 13.4448 23.9072 15.4257C23.9055 19.5135 20.5799 22.8393 16.4938 22.8393H16.4908C15.1605 22.8388 13.8557 22.4814 12.7175 21.8059L12.4468 21.6452ZM20.9873 17.5473C20.9316 17.4543 20.7831 17.3985 20.5602 17.2869C20.3373 17.1754 19.2416 16.6363 19.0373 16.5618C18.8331 16.4875 18.6844 16.4504 18.5359 16.6734C18.3873 16.8965 17.9602 17.3985 17.8302 17.5473C17.7002 17.696 17.5702 17.7146 17.3474 17.603C17.1245 17.4915 16.4064 17.2562 15.5551 16.4969C14.8926 15.9059 14.4453 15.1761 14.3153 14.953C14.1853 14.7298 14.3014 14.6093 14.413 14.4981C14.5133 14.3982 14.6359 14.2378 14.7473 14.1077C14.8587 13.9776 14.8959 13.8845 14.9702 13.7359C15.0445 13.5871 15.0073 13.457 14.9516 13.3454C14.8959 13.2339 14.4502 12.1369 14.2645 11.6906C14.0835 11.256 13.8998 11.3149 13.763 11.3081C13.6332 11.3015 13.4844 11.3002 13.3359 11.3002C13.1873 11.3002 12.9458 11.3559 12.7416 11.5791C12.5373 11.8022 11.9615 12.3414 11.9615 13.4383C11.9615 14.5353 12.7601 15.5951 12.8716 15.7438C12.983 15.8926 14.4431 18.1436 16.6788 19.109C17.2105 19.3386 17.6256 19.4758 17.9493 19.5785C18.4832 19.7481 18.9691 19.7242 19.353 19.6668C19.7813 19.6028 20.6716 19.1277 20.8574 18.6071C21.043 18.0864 21.043 17.6402 20.9873 17.5473Z" fill="#4065F6"/>
</svg>
