<svg width="32" height="32" viewBox="0 0 32 32" fill="none" xmlns="http://www.w3.org/2000/svg">
<rect x="0.5" y="0.5" width="31" height="31" rx="15.5" fill="#4065F6" stroke="white"/>
<path d="M16.3102 20.9869L13.4379 20.9327C12.5079 20.9138 11.5756 20.9515 10.6639 20.7557C9.27694 20.4631 9.17868 19.0285 9.07587 17.8252C8.9342 16.1335 8.98904 14.411 9.25639 12.7334C9.40732 11.7921 10.0013 11.2304 10.9198 11.1693C14.0206 10.9475 17.1419 10.9737 20.2358 11.0772C20.5626 11.0867 20.8916 11.1386 21.2138 11.1976C22.8042 11.4855 22.843 13.1112 22.9461 14.4797C23.0489 15.8623 23.0055 17.2521 22.809 18.6253C22.6513 19.7623 22.3497 20.7158 21.0767 20.8078C19.4817 20.9282 17.9233 21.0251 16.3238 20.9942C16.3239 20.9869 16.3147 20.9869 16.3102 20.9869ZM14.6216 18.1083C15.8235 17.3957 17.0025 16.695 18.1976 15.9872C16.9934 15.2746 15.8166 14.5738 14.6216 13.866V18.1083Z" fill="white"/>
</svg>
